<?xml version="1.0" encoding="utf-8"?>
<!-- Generator: Adobe Illustrator 25.3.1, SVG Export Plug-In . SVG Version: 6.00 Build 0)  -->
<svg version="1.1" id="Layer_1" xmlns="http://www.w3.org/2000/svg" xmlns:xlink="http://www.w3.org/1999/xlink" x="0px" y="0px"
	 viewBox="0 0 525 175" style="enable-background:new 0 0 525 175;" xml:space="preserve">
<style type="text/css">
	.st0{fill:#0DB9CB;}
	.st1{enable-background:new    ;}
	.st2{fill:#3D3D3D;}
</style>
<g>
	<g>
		<path class="st0" d="M123.8,72.8c1.6,3.6,2.6,7.6,2.6,11.7c0,0.1,0,0.3,0,0.4L140,72.8V58.4L123.8,72.8z"/>
		<path class="st0" d="M122.1,84.6c0-14.4-12.9-26.1-28.7-26.1v10.8c9.7,0,17.6,6.6,17.9,14.8l-7.3,6.5c1.9,3.4,3.2,7.2,3.7,11.2
			l6.5-5.8c4.6,8.8,14.5,14.8,25.9,14.8V100C130.1,99.9,122.1,93,122.1,84.6z"/>
		<path class="st0" d="M121.4,130.8V120c-9.9,0-17.9-6.9-17.9-15.3c0-14.4-12.9-26.1-28.7-26.1v10.8c8.4,0,15.5,5,17.4,11.7
			l-3.8,3.4l-7.8,7l0,0l-5.8,5.1V131l19.6-17.4C98.3,123.5,108.9,130.8,121.4,130.8z"/>
	</g>
	<g class="st1">
		<path class="st2" d="M190.7,89.1v21.6h-8.8V90.3c0-6.7-3.3-9.9-9-9.9c-6.3,0-10.5,3.8-10.5,11.3v19h-8.8V73h8.4v4.9
			c2.9-3.5,7.5-5.3,13-5.3C184,72.6,190.7,77.7,190.7,89.1z"/>
	</g>
	<g class="st1">
		<path class="st2" d="M234.7,94.7h-29.5c1.1,5.5,5.6,9,12.2,9c4.2,0,7.5-1.3,10.2-4.1l4.7,5.4c-3.4,4-8.7,6.1-15.2,6.1
			c-12.6,0-20.8-8.1-20.8-19.3s8.2-19.2,19.5-19.2c11,0,19,7.7,19,19.5C234.9,92.8,234.8,93.8,234.7,94.7z M205.1,88.8h21.4
			c-0.7-5.4-4.9-9.2-10.6-9.2C210.1,79.7,206,83.3,205.1,88.8z"/>
	</g>
	<g class="st1">
		<path class="st2" d="M265.9,108.6c-2.1,1.7-5.3,2.5-8.5,2.5c-8.2,0-13-4.4-13-12.7v-18h-6.2v-7h6.2v-8.6h8.8v8.6h10.1v7h-10.1
			v17.9c0,3.7,1.8,5.6,5.2,5.6c1.8,0,3.6-0.5,4.9-1.6L265.9,108.6z"/>
	</g>
	<g class="st1">
		<path class="st2" d="M334,73l-13.9,37.6h-8.5l-9.7-25.9l-9.9,25.9h-8.5L269.7,73h8.3l9.9,27.8L298.3,73h7.4l10.2,27.9L326.1,73
			H334z"/>
	</g>
	<g class="st1">
		<path class="st2" d="M335.9,91.8c0-11.3,8.5-19.2,20-19.2c11.7,0,20.1,8,20.1,19.2s-8.4,19.3-20.1,19.3
			C344.4,111.2,335.9,103.1,335.9,91.8z M367.2,91.8c0-7.2-4.8-11.8-11.2-11.8c-6.3,0-11.1,4.6-11.1,11.8s4.8,11.8,11.1,11.8
			C362.4,103.6,367.2,99,367.2,91.8z"/>
	</g>
	<g class="st1">
		<path class="st2" d="M404.9,72.6V81c-0.8-0.1-1.4-0.2-2-0.2c-6.7,0-10.9,3.9-10.9,11.6v18.3h-8.8V73h8.4v5.5
			C394,74.6,398.6,72.6,404.9,72.6z"/>
	</g>
	<g class="st1">
		<path class="st2" d="M428,94.5l-6.6,6.2v9.9h-8.8V58.4h8.8V90l18.3-16.9h10.6l-15.7,15.8l17.2,21.9h-10.7L428,94.5z"/>
	</g>
</g>
</svg>
